<svg width="0" height="0" class="hidden">
  <symbol xmlns="http://www.w3.org/2000/svg" viewBox="0 0 96 100" id="logo-opera">
    <path fill="#EB6060" fill-rule="evenodd" d="M48 100C21.49 100 0 77.614 0 50S21.49 0 48 0s48 22.386 48 50-21.49 50-48 50zm0-10c13.807 0 25-17.909 25-40S61.807 10 48 10 23 27.909 23 50s11.193 40 25 40z"></path>
  </symbol>
  <symbol xmlns="http://www.w3.org/2000/svg" viewBox="0 0 105 100" id="logo-firefox">
    <path fill="#FF9800" d="M105 50c0 28.862-23.513 50-52.5 50S0 76.588 0 47.726c0-9.043 2.33-17.59 6.392-25a.995.995 0 0 1 .23-.366C4.338 18.956 3.334 10.318 9.128 4.541c0 2.411 1.464 6.548 3.104 9.638 1.326 2.457 2.737 4.228 3.741 4 2.284-.543 10.27-.543 11.412 0 1.877-2.405 6.445-9.09 13.703-9.09-4.062 4.045-15.704 18.185 4.567 18.185h4.568L36.52 36.363s1.556 3 0 4.548c-1.732-1.732-9.128 1.862-9.128 6.815s5.296 11.363 15.98 11.363c10.683 0 7.986-4.548 13.696-4.548 5.709 0 6.844 4.548 6.844 4.548-7.855 0-13.558 9.09-22.824 9.09 4.567 3.364 7.58 4.547 13.696 4.547 15.113 0 27.392-12.225 27.392-27.274 0-6.09-2.008-11.683-5.388-16.224a27.414 27.414 0 0 1 10.96 19.498 40.554 40.554 0 0 0 1.279-10.089c0-13.683-5.84-31.776-15.98-38.637C87.655 4.358 105 18.466 105 45.452V50z"></path>
  </symbol>
  <symbol xmlns="http://www.w3.org/2000/svg" viewBox="0 0 102 100" id="logo-chrome">
    <g fill="none">
      <path fill="#E16B5A" d="M50.768.01s30.01-1.325 45.916 28.249H48.217s-9.154-.296-16.957 10.594c-2.25 4.561-4.65 9.27-1.95 18.538-3.9-6.472-20.708-35.164-20.708-35.164S20.457 1.186 50.768.009z"></path>
      <path fill="#FFD464" d="M95.122 75.095S81.284 101.238 47.21 99.952C51.414 92.82 71.45 58.8 71.45 58.8s4.837-7.626-.875-19.696c-2.903-4.192-11.7-8.586-21.237-10.928 7.67-.075 47.25.005 47.25.005s12.653 20.59-1.466 46.915z"></path>
      <path fill="#74B340" d="M6.628 75.294s-16.17-24.825 2.004-53.116l24.225 41.163s4.314 7.92 17.832 9.104c5.153-.368 10.514-.682 17.351-7.607C64.27 71.387 47.327 100 47.327 100s-24.51.448-40.7-24.706z"></path>
      <ellipse cx="50.646" cy="50.406" fill="#FFF" rx="23.064" ry="22.656"></ellipse>
      <ellipse cx="50.638" cy="50.406" fill="#2995CC" rx="18.292" ry="17.969"></ellipse>
      <path fill="#268CBF" d="M50.643 32.441c-.364 0-.724.014-1.082.034 9.598.55 17.209 8.369 17.209 17.934 0 9.568-7.611 17.386-17.21 17.937.36.02.72.034 1.083.034 10.101 0 18.292-8.046 18.292-17.97 0-9.923-8.19-17.969-18.292-17.969z"></path>
    </g>
  </symbol>
</svg>